<?xml version="1.0" encoding="UTF-8"?>
<svg id="Layer_1" data-name="Layer 1" xmlns="http://www.w3.org/2000/svg" viewBox="0 0 350 60">
  <defs>
    <style>
      .cls-1 {
        fill: #fff;
      }
    </style>
  </defs>
  <path class="cls-1" d="M28.06.06C12.4,1.03,0,14.06,0,30s12.4,28.97,28.06,29.94c1.02.06,1.87-.79,1.87-1.82V1.88C29.93.85,29.08,0,28.06.06Z"/>
  <path class="cls-1" d="M64.11.06h-23.57c-1.31,0-2.38,1.06-2.38,2.38v57.51h11.24c1.31,0,2.38-1.06,2.38-2.38v-18.91h12.33c6.15,0,11.07-1.76,14.7-5.25,3.66-3.49,5.49-8.2,5.49-14.04s-1.83-10.62-5.44-14.09C75.25,1.81,70.33.06,64.11.06ZM68.69,24.6c-1.33,1.28-3.16,1.92-5.46,1.92h-11.45v-14.32h11.45c2.3,0,4.13.64,5.46,1.92,1.33,1.28,2,3.02,2,5.25s-.67,3.97-2,5.23Z"/>
  <path class="cls-1" d="M147.23,1.58l-17.64,46.24h-31.68V.07h-13.6v55.13c0,2.62,2.13,4.75,4.75,4.75h48.01c.99,0,1.88-.61,2.22-1.54l3.87-10.3c.4-1.06,1.42-1.77,2.55-1.77h17.45c1.17,0,2.2.74,2.58,1.84l3.48,10.16c.33.96,1.23,1.61,2.25,1.61h12.48L162.07,1.6c-.35-.93-1.23-1.54-2.22-1.54h-10.4c-.99,0-1.87.61-2.22,1.53ZM147.88,34.81l6.87-18.77h.31l6.34,18.77h-13.52Z"/>
  <path class="cls-1" d="M226.09.07c-1.31,0-2.38,1.06-2.38,2.38v36.43h-.3L198.25,1.12c-.44-.66-1.18-1.06-1.98-1.06h-12.33v59.88h10.34c1.31,0,2.38-1.06,2.38-2.38V22.24h.29l23.72,35.58c.71,1.06,1.81,1.76,3.04,2v.11h40.66v-12.12h-27.94v-13.01h27.94v-11.83h-27.94v-10.79h44.88v47.75h11.23c1.31,0,2.38-1.06,2.38-2.38V12.19h16.93V.07h-85.75Z"/>
  <path class="cls-1" d="M321.94.07c-1.02-.06-1.87.79-1.87,1.82v56.24c0,1.02.85,1.88,1.87,1.82,15.66-.97,28.06-14,28.06-29.94S337.6,1.04,321.94.07Z"/>
</svg>