<svg xmlns="http://www.w3.org/2000/svg" viewBox="100 120 1700 320">
  <style>
    .cls-1 { fill: #1c1e1e; }
  </style>
  <g>
    <path class="cls-1" d="M265.78,138.13c-71.6,4.42-128.28,64-128.28,136.87s56.68,132.45,128.28,136.87c4.66.29,8.55-3.62,8.55-8.3V146.43c0-4.68-3.88-8.59-8.55-8.3Z"/>
    <path class="cls-1" d="M430.56,138.11h-107.73c-6,0-10.86,4.86-10.86,10.86v262.91h51.37c6,0,10.86-4.86,10.86-10.86v-86.44h56.36c28.13,0,50.61-8.04,67.22-24,16.72-15.96,25.09-37.47,25.09-64.18s-8.36-48.54-24.87-64.4c-16.51-15.85-38.99-23.89-67.44-23.89ZM451.52,250.29c-6.08,5.86-14.44,8.8-24.98,8.8h-52.34v-65.48h52.34c10.53,0,18.9,2.93,24.98,8.8,6.08,5.86,9.12,13.79,9.12,24s-3.04,18.14-9.12,23.89Z"/>
    <path class="cls-1" d="M810.53,145.1l-80.65,211.36h-144.83v-218.3h-62.18v252.01c0,12,9.72,21.72,21.72,21.72h219.5c4.53,0,8.58-2.81,10.17-7.04l17.67-47.1c1.82-4.86,6.47-8.08,11.66-8.08h79.77c5.33,0,10.06,3.39,11.79,8.43l15.89,46.46c1.5,4.39,5.63,7.35,10.28,7.35h57.07l-99.98-266.73c-1.59-4.24-5.64-7.05-10.17-7.05h-47.55c-4.5,0-8.54,2.78-10.15,6.99ZM813.53,296.99l31.38-85.79h1.41l29,85.79h-61.79Z"/>
    <path class="cls-1" d="M1171.04,138.16c-6,0-10.86,4.86-10.86,10.86v166.55h-1.35l-115.06-172.58c-2.01-3.02-5.4-4.84-9.04-4.84h-56.36v273.72h47.26c6,0,10.86-4.86,10.86-10.86v-161.48h1.35l108.45,162.67c3.24,4.85,8.28,8.04,13.89,9.15v.52h185.86v-55.42h-127.73v-59.47h127.73v-54.07h-127.73v-49.34h205.16v218.3h51.32c6,0,10.86-4.86,10.86-10.86v-207.44h77.39v-55.42h-391.99Z"/>
    <path class="cls-1" d="M1609.22,138.18c-4.66-.29-8.55,3.62-8.55,8.3v257.09c0,4.68,3.89,8.59,8.55,8.3,71.6-4.42,128.28-63.99,128.28-136.85s-56.68-132.43-128.28-136.85Z"/>
  </g>
</svg>
