<svg xmlns="http://www.w3.org/2000/svg" version="1.1" xmlns:xlink="http://www.w3.org/1999/xlink" width="512" height="512" x="0" y="0" viewBox="0 0 24 24" style="enable-background:new 0 0 512 512" xml:space="preserve"><g><path fill="#111111" fill-rule="evenodd" d="M2 12C2 6.477 6.477 2 12 2s10 4.477 10 10-4.477 10-10 10S2 17.523 2 12zm9.293-4.707a1 1 0 0 1 1.414 0l4 4a1 1 0 0 1-1.414 1.414L13 10.414V16a1 1 0 1 1-2 0v-5.586l-2.293 2.293a1 1 0 0 1-1.414-1.414z" clip-rule="evenodd" opacity="1" data-original="#000000"></path></g></svg>